HIERARCHY
ROOT root
{
	OFFSET	0	13.1	24.9
	CHANNELS 6  Xposition Yposition Zposition Xrotation Yrotation Zrotation
	JOINT spine_1
	{
		OFFSET	0	9.99999	0
		CHANNELS 3  Xrotation Yrotation Zrotation
		JOINT spine_2
		{
			OFFSET	0	112	-10
			CHANNELS 3  Xrotation Yrotation Zrotation
			JOINT spine_3
			{
				OFFSET	0	206.5	19.3
				CHANNELS 3  Xrotation Yrotation Zrotation
				JOINT spine_4
				{
					OFFSET	0	110.4	14.6
					CHANNELS 3  Xrotation Yrotation Zrotation
					JOINT neck_1
					{
						OFFSET	0	71.8	-50.3
						CHANNELS 3  Xrotation Yrotation Zrotation
						JOINT neck_2
						{
							OFFSET	0	86.2	-25.8
							CHANNELS 3  Xrotation Yrotation Zrotation
							JOINT head_ee
							{
								OFFSET	0	179.8	-8.7
								CHANNELS 3  Xrotation Yrotation Zrotation
								End Site
								{
									OFFSET	1	0	0
								}
							}
						}
					}
					JOINT left_clavicle
					{
						OFFSET	-43.2	22.4	-70.8
						CHANNELS 3  Xrotation Yrotation Zrotation
						JOINT left_shoulder
						{
							OFFSET	-93.9	-5.79999	48.7
							CHANNELS 3  Xrotation Yrotation Zrotation
							JOINT left_elbow
							{
								OFFSET	-291.4	-30.8	15.2
								CHANNELS 3  Xrotation Yrotation Zrotation
								JOINT left_lowarm_twist
								{
									OFFSET	-110.7	-3.89999	13.6
									CHANNELS 3  Xrotation Yrotation Zrotation
									JOINT left_hand
									{
										OFFSET	-110.7	-3.89999	13.6
										CHANNELS 3  Xrotation Yrotation Zrotation
										JOINT left_ee
										{
											OFFSET	-80.8	-5.10001	12.1
											CHANNELS 3  Xrotation Yrotation Zrotation
											End Site
											{
												OFFSET	1	0	0
											}
										}
									}
								}
							}
						}
					}
					JOINT right_clavicle
					{
						OFFSET	43.2	22.4	-70.8
						CHANNELS 3  Xrotation Yrotation Zrotation
						JOINT right_shoulder
						{
							OFFSET	93.9	-5.79999	48.7
							CHANNELS 3  Xrotation Yrotation Zrotation
							JOINT right_elbow
							{
								OFFSET	291.4	-30.8	15.2
								CHANNELS 3  Xrotation Yrotation Zrotation
								JOINT right_lowarm_twist
								{
									OFFSET	110.7	-3.89999	13.6
									CHANNELS 3  Xrotation Yrotation Zrotation
									JOINT right_hand
									{
										OFFSET	110.7	-3.89999	13.6
										CHANNELS 3  Xrotation Yrotation Zrotation
										JOINT right_ee
										{
											OFFSET	80.8	-5.10001	12.1
											CHANNELS 3  Xrotation Yrotation Zrotation
											End Site
											{
												OFFSET	1	0	0
											}
										}
									}
								}
							}
						}
					}
				}
			}
		}
	}
	JOINT left_hip
	{
		OFFSET	-82.8	-127.5	0.300001
		CHANNELS 3  Xrotation Yrotation Zrotation
		JOINT left_knee
		{
			OFFSET	-28.2	-396.7	2.2
			CHANNELS 3  Xrotation Yrotation Zrotation
			JOINT left_ankle
			{
				OFFSET	-11.7	-411.3	35.4
				CHANNELS 3  Xrotation Yrotation Zrotation
				JOINT left_toes
				{
					OFFSET	0	-60	-88.6
					CHANNELS 3  Xrotation Yrotation Zrotation
					JOINT left_foot_ee
					{
						OFFSET	-22.5	-16.5	-42.2
						CHANNELS 3  Xrotation Yrotation Zrotation
						End Site
						{
							OFFSET	1	0	0
						}
					}
				}
			}
		}
	}
	JOINT right_hip
	{
		OFFSET	82.8	-127.5	0.300001
		CHANNELS 3  Xrotation Yrotation Zrotation
		JOINT right_knee
		{
			OFFSET	28.2	-396.7	2.2
			CHANNELS 3  Xrotation Yrotation Zrotation
			JOINT right_ankle
			{
				OFFSET	11.7	-411.3	35.4
				CHANNELS 3  Xrotation Yrotation Zrotation
				JOINT right_toes
				{
					OFFSET	0	-60	-88.6
					CHANNELS 3  Xrotation Yrotation Zrotation
					JOINT right_foot_ee
					{
						OFFSET	22.5	-16.5	-42.2
						CHANNELS 3  Xrotation Yrotation Zrotation
						End Site
						{
							OFFSET	1	0	0
						}
					}
				}
			}
		}
	}
}
MOTION
Frames: 6
Frame Time: 0.02
477.092725676 723.902 -1215.5029512 165.780820883 -57.0136280406 171.235690197 -3.06816 -0.319748 -3.1279 -3.06272 -0.120164 -3.14189 -3.04927 0.707459 -3.06364 -3.0623 0.214987 -3.13683 -4.18518 12.7 10.1347 -3.88155 15.521 12.3904 -0.0 0.0 -0.0 11.2162 -18.7064 22.2314 -2.20762 -13.7655 59.672 0.802665 -21.6835 0.153725 22.6134 0.235038 -2.86039 0.113663 -0.0339122 0.744801 -0.0 0.0 -0.0 2.28594 -5.02958 -4.78457 -11.2001 28.3656 -57.1213 0.719422 19.6151 -0.124365 13.467 -0.27652 1.69412 -0.436862 1.07942 3.38238 0.0 0.0 0.0 -9.58002 -2.02346 -1.542 -4.38011 0.155398 0.654089 15.2341 5.76858 -2.12428 18.4174 -0.0 -0.0 -0.0 0.0 -0.0 -0.98455 0.380913 2.5274 -14.4396 -0.320424 -2.18692 7.14372 -21.1515 1.05234 -7.26201 0.0 0.0 0.0 0.0 0.0 
479.321909549 723.793 -1212.94659486 166.539715762 -55.0096698404 172.353275471 -3.18568 -0.448762 -3.15 -3.1802 -0.247513 -3.17214 -3.15899 0.598315 -3.12507 -3.17261 0.0975206 -3.18028 -5.20368 12.6483 10.2519 -4.90867 15.6193 12.5778 -0.0 0.0 -0.0 11.1192 -19.8239 21.9373 -1.27475 -14.2649 58.4268 0.836311 -22.5033 0.16638 22.457 0.237309 -2.84056 0.00357383 1.48422 0.648046 -0.0 0.0 -0.0 2.35086 -5.16158 -4.91296 -11.1253 28.1562 -57.2834 0.703116 19.2034 -0.118946 13.4356 -0.276342 1.69012 -0.424432 1.27201 3.38179 0.0 0.0 0.0 -9.70193 -1.85579 -1.70559 -3.90586 0.140995 0.582732 17.5887 5.85272 -2.42823 18.1429 -0.0 -0.0 -0.0 0.0 -0.0 -0.0670363 1.2093 2.10096 -13.4381 -0.316092 -2.03331 6.74334 -22.4429 0.999992 -7.99545 0.0 0.0 0.0 0.0 0.0 
487.954578193 724.258 -1207.02185715 167.230763759 -52.6963577855 173.634329634 -3.22774 -0.323089 -2.98733 -3.22279 -0.13243 -3.00182 -3.20934 0.667032 -2.92983 -3.22127 0.196168 -2.99833 -5.55397 12.4729 10.3295 -5.26119 15.332 12.6538 -0.0 0.0 -0.0 11.0403 -19.243 21.798 -0.360696 -14.6453 57.8045 0.927447 -24.6751 0.202857 22.3948 0.238199 -2.83265 0.015513 0.838774 0.456472 -0.0 0.0 -0.0 2.2791 -5.43361 -4.80111 -11.7838 27.4616 -57.6235 0.680689 18.6338 -0.111675 13.7715 -0.278139 1.73298 -0.426221 1.22866 3.37517 0.0 0.0 0.0 -9.65804 -1.73563 -1.72476 -5.98582 0.199766 0.896511 17.3566 5.94249 -2.39852 17.8516 -0.0 -0.0 -0.0 0.0 -0.0 0.504933 1.80876 1.59046 -13.8736 -0.318306 -2.1001 6.31473 -23.0611 0.940212 -7.94458 0.0 0.0 0.0 0.0 0.0 
503.995101534 723.994 -1200.93544013 166.976543844 -50.1190437826 173.977803438 -3.2262 -0.437658 -2.95536 -3.22138 -0.248799 -2.9772 -3.20175 0.547753 -2.93697 -3.21378 0.077256 -2.98657 -5.77679 12.2721 10.1273 -5.49857 15.172 12.4342 -0.0 0.0 -0.0 10.9784 -19.1972 21.661 1.42268 -15.4225 56.0524 1.07154 -27.959 0.266765 22.3406 0.238965 -2.82578 0.0288665 -0.0824267 0.158059 -0.0 0.0 -0.0 2.26143 -6.19732 -4.82347 -13.1503 26.4244 -58.0896 0.650647 17.8648 -0.102267 14.0925 -0.27962 1.77396 -0.421553 1.13463 3.30344 0.0 0.0 0.0 -10.0022 -1.58041 -2.04617 -8.57843 0.257006 1.29022 17.0877 6.13831 -2.36391 17.5759 -0.0 -0.0 -0.0 0.0 -0.0 1.47282 2.63996 1.63608 -13.9985 -0.318847 -2.11925 5.72183 -23.5891 0.855468 -7.87192 0.0 0.0 0.0 0.0 0.0 
511.288548426 720.796 -1195.31988602 166.831600357 -49.9265205373 174.057518387 -3.21107 -0.367528 -2.96009 -3.20621 -0.17851 -2.97745 -3.19043 0.615116 -2.91874 -3.20229 0.14665 -2.97919 -6.024 12.114 10.7451 -5.71664 14.4824 13.0426 -0.0 0.0 -0.0 10.8608 -18.3053 21.4516 3.52208 -16.0289 55.169 1.26215 -32.0136 0.362092 22.2245 0.240588 -2.81104 0.00603454 -1.56651 -0.621056 -0.0 0.0 -0.0 2.42444 -6.38338 -5.1311 -13.8382 25.6306 -58.6432 0.589782 16.2864 -0.0843929 14.3842 -0.280768 1.81119 -0.486961 -0.169621 3.1804 0.0 0.0 0.0 -10.616 -2.22603 -2.83057 -9.47577 0.272659 1.42702 16.6364 6.01222 -2.30604 17.4648 -0.0 -0.0 -0.0 0.0 -0.0 4.3611 2.85628 1.19722 -12.9586 -0.313068 -1.95981 4.98455 -23.7226 0.747202 -8.29013 0.0 0.0 0.0 0.0 0.0 
521.988884151 720.707 -1192.57681334 167.847575658 -51.5107448816 175.322608145 -3.24874 -0.404074 -2.88311 -3.24414 -0.219875 -2.90295 -3.22666 0.557256 -2.85747 -3.23804 0.0991776 -2.90957 -6.55522 11.3667 9.78916 -6.30691 13.9422 11.9933 -0.0 0.0 -0.0 10.5818 -12.3012 21.076 4.59937 -15.4861 55.4331 1.85772 -42.6179 0.724681 21.7182 0.247313 -2.74671 0.207817 -7.79134 -1.90428 -0.0 0.0 -0.0 2.63519 -6.85703 -5.54158 -14.8695 24.8377 -58.9347 0.542285 15.0367 -0.0715703 16.5003 -0.283413 2.08144 -0.273352 -1.86934 1.02971 0.0 0.0 0.0 -10.5409 -2.96016 -3.64588 -9.66342 0.275661 1.45566 16.3878 3.23986 -2.27934 17.5309 -0.0 -0.0 -0.0 0.0 -0.0 7.60022 2.90128 0.0899481 -11.2681 -0.2975 -1.70091 4.35981 -20.2381 0.644947 -7.67196 0.0 0.0 0.0 0.0 0.0 
